<?xml version="1.0" encoding="utf-8"?>
<!-- Generator: Adobe Illustrator 26.0.1, SVG Export Plug-In . SVG Version: 6.00 Build 0)  -->
<svg version="1.1" id="Layer_1" xmlns="http://www.w3.org/2000/svg" xmlns:xlink="http://www.w3.org/1999/xlink" x="0px" y="0px"
	 viewBox="0 0 595.28 595.28" style="enable-background:new 0 0 595.28 595.28;" xml:space="preserve">
<style type="text/css">
	.st0{fill:#9FFFFF;stroke:#9FFFFF;stroke-width:2.8629;stroke-miterlimit:10;}
	.st1{fill:#F3A5FF;stroke:#F3A5FF;stroke-width:2.8629;stroke-miterlimit:10;}
</style>
<path class="st0" d="M127.4,126.85c26.18-7.51,45.43,1.43,64.04,21.93c50,55.07,86.54,92.86,137.74,146.72
	c6.8,7.15,13.9,13.97,23.13,23.21c47.23-51.18,97.02-100.82,147.41-155.43c-0.46,15.74-0.45,21.37-0.44,28.14
	c0.15,74.32-0.62,176.77,0.44,251.07c-21.04,0.36-3.49,0.06-33.29,0c0-58.42-0.56-122.29-0.56-190.42
	c-40.08,44.52-74.5,82.76-107.2,119.09C272.86,280.81,208.29,212.01,127.4,126.85z"/>
<path class="st1" d="M318.54,405.4c-1.45,1.09-9.24,6.95-21.67,16.29C246.9,367.67,195.67,312.3,144.44,256.93
	c-2.25,1.08-4.49,2.17-6.74,3.25c0,59.43,0,118.85,0,179.8c-12.95,0-22.25,0-33.32,0c0-90.3,0-179.17,0-265.7
	C174.24,249.67,245.12,326.16,318.54,405.4z"/>
<path class="st1" d="M326.19,238.43c40.47-42.14,58.15-63.87,98.06-101.14c10.21-9.54,26.87-11.51,48.13-11.5
	c-50.34,52.89-77.48,82.38-125.62,132.96C343.74,255.77,336.87,248.98,326.19,238.43z"/>
<path class="st0" d="M174.71,347.97c40.23,21.21,32.99,55.92,30.91,91.49c-10.31,0-19.55,0-30.91,0
	C174.71,409.61,174.71,380.15,174.71,347.97z"/>
<path class="st1" d="M426.66,440.21c-9.9,0-18.41,0-29.32,0c-2.13-34.42-11.29-69.47,29.32-91.65
	C426.66,378.77,426.66,407.71,426.66,440.21z"/>
</svg>
